<svg width="16" height="16" viewBox="0 0 16 16" fill="none" xmlns="http://www.w3.org/2000/svg">
<g id="Property 1=basic, Property 2=thumbs-down">
<path id="Path" fill-rule="evenodd" clip-rule="evenodd" d="M10.1891 15.8724C10.7622 15.7055 11 15.466 11 15.0149C11 14.6982 10.9359 14.3124 10.8101 13.856C10.7161 13.515 10.5944 13.1541 10.4229 12.6937C10.3689 12.5487 10.1358 11.9373 10.079 11.7836C9.94892 11.4319 9.86325 11.1729 9.80465 10.9376C9.55554 9.9373 9.80546 9.01343 11 9.01343H15C15.6912 9.01343 16 8.65345 16 8.01318C16 3.22126 15.0151 0.0112192 14 0.0112192C11.9322 0.0112192 11.9322 0.0112192 6.9656 0.0106272C6.52537 0.00275875 5.91062 0.0708705 5.33688 0.276202C4.45197 0.592891 4 1.10926 4 2.01171L4 9.01343C4 9.25368 4.04443 9.46643 4.14171 9.69361C4.40664 10.3123 7.91427 14.1518 9.45996 16C9.71139 15.9811 9.94837 15.9425 10.1891 15.8724Z" fill="#D86A6A"/>
<path id="Path_2" fill-rule="evenodd" clip-rule="evenodd" d="M0 1V10H3V1H0Z" fill="#D86A6A"/>
</g>
</svg>
