<svg width="16" height="16" viewBox="0 0 16 16" fill="none" xmlns="http://www.w3.org/2000/svg">
<g id="Property 1=basic, Property 2=thumbs-up">
<rect width="16" height="16" fill="white"/>
<g id="Path">
<path fill-rule="evenodd" clip-rule="evenodd" d="M4.14171 6.30485C4.04443 6.53198 4 6.74467 4 6.98487V13.9849C4 14.8871 4.45197 15.4033 5.33688 15.72C5.91062 15.9252 6.52537 15.9933 6.96307 15.9855C6.97035 15.9853 6.97035 15.9853 7 15.9849H14C15.0151 15.9849 16 12.7756 16 7.98487C16 7.34476 15.6912 6.98487 15 6.98487H11C9.80546 6.98487 9.55554 6.06122 9.80465 5.06118C9.86325 4.82594 9.94892 4.56704 10.079 4.21542C10.1358 4.06171 10.3689 3.45047 10.4229 3.30553C10.5944 2.84524 10.7161 2.48445 10.8101 2.14348C10.9359 1.68718 11 1.30145 11 0.98487C11 0.533896 10.7622 0.294466 10.1891 0.127604C9.94837 0.0574983 9.71139 0.0188584 9.45996 0C7.91427 1.84772 4.40664 5.68631 4.14171 6.30485Z" fill="#01988F"/>
<path fill-rule="evenodd" clip-rule="evenodd" d="M4.14171 6.30485C4.04443 6.53198 4 6.74467 4 6.98487V13.9849C4 14.8871 4.45197 15.4033 5.33688 15.72C5.91062 15.9252 6.52537 15.9933 6.96307 15.9855C6.97035 15.9853 6.97035 15.9853 7 15.9849H14C15.0151 15.9849 16 12.7756 16 7.98487C16 7.34476 15.6912 6.98487 15 6.98487H11C9.80546 6.98487 9.55554 6.06122 9.80465 5.06118C9.86325 4.82594 9.94892 4.56704 10.079 4.21542C10.1358 4.06171 10.3689 3.45047 10.4229 3.30553C10.5944 2.84524 10.7161 2.48445 10.8101 2.14348C10.9359 1.68718 11 1.30145 11 0.98487C11 0.533896 10.7622 0.294466 10.1891 0.127604C9.94837 0.0574983 9.71139 0.0188584 9.45996 0C7.91427 1.84772 4.40664 5.68631 4.14171 6.30485Z" fill="#1C9988"/>
</g>
<path id="Path_2" fill-rule="evenodd" clip-rule="evenodd" d="M0 6.48486V15.4849H3V6.48486H0Z" fill="#1C9988"/>
</g>
</svg>
